<?xml version="1.0" encoding="utf-8"?>
<!-- Generator: Adobe Illustrator 22.0.1, SVG Export Plug-In . SVG Version: 6.00 Build 0)  -->
<svg version="1.1" id="Layer_1" xmlns="http://www.w3.org/2000/svg" xmlns:xlink="http://www.w3.org/1999/xlink" x="0px" y="0px"
	 viewBox="0 0 773 1000" enable-background="new 0 0 773 1000" xml:space="preserve">
<g>
	<path fill="#526832" d="M0,122.4C0,47.6,56.6,0,119.4,0c64.8,0,98.2,39.7,107.5,77.7l-43,13.6C178.3,68.8,160.1,44,119.4,44
		c-35.1,0-72.1,25.1-72.1,78.4c0,49.9,35.1,77.4,72.8,77.4c40,0,59.5-26.1,65.8-48l42.7,12.9c-8.9,36-42.7,79.7-108.5,79.7
		C54.6,244.4,0,197.1,0,122.4z"/>
	<path fill="#526832" d="M544.5,498.5c0-74.7,56.5-122.4,119.4-122.4c64.8,0,98.2,39.7,107.5,77.7l-43,13.6
		c-5.6-22.5-23.8-47.3-64.5-47.3c-35.1,0-72.1,25.1-72.1,78.4c0,49.9,35.1,77.4,72.8,77.4c40,0,59.5-26.1,65.8-48l42.7,12.9
		c-8.9,36-42.7,79.7-108.5,79.7C599,620.5,544.5,573.3,544.5,498.5z"/>
	<path fill="#526832" d="M296.8,1000V765.5h148.1v43.3H342.4v57.9h91.3v42h-90.9v91.3H296.8z"/>
</g>
</svg>
