<svg width="530" height="230" xmlns="http://www.w3.org/2000/svg"><g fill="#FFF" fill-rule="nonzero"><path d="M28.141 57.155c15.323 0 23.177-10.164 25.256-18.557l-9.933-3.003c-1.463 5.082-6.006 11.165-15.323 11.165-8.778 0-16.94-6.391-16.94-18.018 0-12.397 8.624-18.25 16.786-18.25 9.471 0 13.706 5.776 15.015 11.012l10.01-3.157C50.856 9.492 43.08.252 27.987.252 13.357.252.19 11.34.19 28.742s12.705 28.413 27.951 28.413ZM104.057 56h11.55L94.817 1.407h-12.32L61.552 56h11.243l4.543-12.474h22.176L104.057 56ZM88.426 13.188l7.546 20.636H80.88l7.546-20.636ZM164.572 56V45.836H140.24V1.406h-10.626V56zM190.514 56V1.407h-10.78V56zM220.691 56V34.748h21.175v-9.78h-21.252V11.495h23.87V1.407h-34.496V56zM267.655 28.665c0-12.32 8.624-18.172 17.017-18.172 8.47 0 17.094 5.852 17.094 18.172s-8.624 18.172-17.094 18.172c-8.393 0-17.017-5.852-17.017-18.172Zm-11.012.077c0 17.556 13.245 28.413 28.029 28.413 14.86 0 28.105-10.857 28.105-28.413 0-17.633-13.244-28.49-28.105-28.49-14.784 0-28.029 10.857-28.029 28.49ZM355.967 56h11.858l-11.704-22.33c7.161-2.08 11.627-7.854 11.627-15.477 0-9.471-6.776-16.786-17.402-16.786h-21.33V56h10.704V34.979h5.544L355.967 56ZM339.72 25.816v-15.17h8.624c5.39 0 8.547 3.004 8.547 7.624 0 4.466-3.157 7.546-8.547 7.546h-8.624ZM430.727 56V1.407h-10.626V37.52L397.386 1.407h-13.244V56h10.626V17.269l24.794 38.73zM460.981 56V1.407h-10.78V56zM517.493 56h11.55l-20.79-54.593h-12.32L474.989 56h11.242l4.543-12.474h22.176L517.493 56Zm-15.631-42.812 7.546 20.636h-15.092l7.546-20.636ZM147.397 143.155c15.323 0 23.178-10.164 25.257-18.557l-9.934-3.003c-1.463 5.082-6.006 11.165-15.323 11.165-8.778 0-16.94-6.391-16.94-18.018 0-12.397 8.624-18.25 16.786-18.25 9.471 0 13.706 5.776 15.015 11.012l10.01-3.157c-2.155-8.855-9.933-18.095-25.025-18.095-14.63 0-27.797 11.088-27.797 28.49s12.705 28.413 27.951 28.413ZM223.467 142v-10.164h-24.332v-44.43h-10.627V142zM244.635 114.665c0-12.32 8.624-18.172 17.017-18.172 8.47 0 17.094 5.852 17.094 18.172s-8.624 18.172-17.094 18.172c-8.393 0-17.017-5.852-17.017-18.172Zm-11.011.077c0 17.556 13.244 28.413 28.028 28.413 14.861 0 28.105-10.857 28.105-28.413 0-17.633-13.244-28.49-28.105-28.49-14.784 0-28.028 10.857-28.028 28.49ZM344.728 97.494V87.407H299.53v10.087h17.248V142h10.703V97.494zM404.32 142V87.407h-10.703v21.945h-23.794V87.407h-10.626V142h10.626v-22.638h23.794V142zM73.946 228v-21.252h21.175v-9.78H73.87v-13.474h23.87v-10.087H63.243V228zM120.91 200.665c0-12.32 8.623-18.172 17.016-18.172 8.47 0 17.094 5.852 17.094 18.172s-8.624 18.172-17.094 18.172c-8.393 0-17.017-5.852-17.017-18.172Zm-11.012.077c0 17.556 13.244 28.413 28.028 28.413 14.861 0 28.106-10.857 28.106-28.413 0-17.633-13.245-28.49-28.106-28.49-14.784 0-28.028 10.857-28.028 28.49ZM202.677 229.232c11.704 0 21.02-7.161 21.02-20.56v-35.265h-10.625v34.496c0 7.16-3.927 10.934-10.395 10.934-6.314 0-10.318-3.773-10.318-10.934v-34.496h-10.626v35.266c0 13.398 9.317 20.559 20.944 20.559ZM289.218 228v-54.593h-10.626v36.113l-22.715-36.113h-13.244V228h10.626v-38.731l24.794 38.73zM319.318 218.144v-34.881h8.547c8.932 0 16.324 5.62 16.324 17.479 0 11.858-7.469 17.402-16.4 17.402h-8.47Zm8.855 9.856c15.554 0 27.027-10.01 27.027-27.258 0-17.248-11.396-27.335-26.95-27.335h-19.558V228h19.481ZM398.39 228h11.859l-11.704-22.33c7.16-2.08 11.627-7.854 11.627-15.477 0-9.471-6.776-16.786-17.402-16.786h-21.33V228h10.704v-21.021h5.544L398.39 228Zm-16.246-30.184v-15.17h8.624c5.39 0 8.547 3.004 8.547 7.624 0 4.466-3.157 7.546-8.547 7.546h-8.624ZM439.348 205.054V228h10.626v-22.946l19.25-31.647H457.29l-12.243 21.637-12.243-21.637H420.33z"/></g></svg>