<?xml version="1.0" encoding="utf-8"?>
<!-- Generator: Adobe Illustrator 22.0.1, SVG Export Plug-In . SVG Version: 6.00 Build 0)  -->
<svg version="1.1" id="Layer_1" xmlns="http://www.w3.org/2000/svg" xmlns:xlink="http://www.w3.org/1999/xlink" x="0px" y="0px"
	 viewBox="0 0 35.2 49.8" enable-background="new 0 0 35.2 49.8" xml:space="preserve">
<path d="M33.4,49.7H1.8c-1,0-1.8-0.8-1.8-1.8V13.1c0-1,0.8-1.8,1.8-1.8h7.1V8.8c0-4.8,3.9-8.8,8.8-8.8c4.8,0,8.7,3.9,8.7,8.7v2.6
	h7.1c1,0,1.8,0.8,1.8,1.8V48C35.1,48.9,34.3,49.7,33.4,49.7z M1.8,12.9c-0.1,0-0.2,0.1-0.2,0.2V48c0,0.1,0.1,0.2,0.2,0.2h31.6
	c0.1,0,0.2-0.1,0.2-0.2V13.1c0-0.1-0.1-0.2-0.2-0.2h-7.1v6.2h-1.5v-6.2H10.4v6.2H8.9v-6.2H1.8z M10.4,11.4h14.4V8.7
	c0-4-3.2-7.2-7.2-7.2c-4,0-7.2,3.3-7.2,7.2V11.4z"/>
</svg>
